<?xml version="1.0" encoding="utf-8"?>
<!-- Generator: Adobe Illustrator 25.3.1, SVG Export Plug-In . SVG Version: 6.00 Build 0)  -->
<svg version="1.1" id="Layer_1" xmlns="http://www.w3.org/2000/svg" xmlns:xlink="http://www.w3.org/1999/xlink" x="0px" y="0px"
     width="242" height="197"  viewBox="0 0 206.5 173.3" style="enable-background:new 0 0 206.5 173.3;" xml:space="preserve">
<style type="text/css">
	.st0{fill:none;}
	.st1{clip-path:url(#SVGID_2_);fill:#FFFFFF;}
	.st2{clip-path:url(#SVGID_4_);fill:#FFFFFF;}
	.st3{clip-path:url(#SVGID_6_);fill:#FFFFFF;}
	.st4{clip-path:url(#SVGID_8_);fill:#FFFFFF;}
	.st5{clip-path:url(#SVGID_10_);fill:#FFFFFF;}
	.st6{clip-path:url(#SVGID_12_);fill:#FFFFFF;}
	.st7{clip-path:url(#SVGID_14_);fill:#FFFFFF;}
	.st8{clip-path:url(#SVGID_16_);fill:#FFFFFF;}
	.st9{clip-path:url(#SVGID_18_);fill:#FFFFFF;}
	.st10{clip-path:url(#SVGID_20_);fill:#FFFFFF;}
	.st11{clip-path:url(#SVGID_22_);fill:#FFFFFF;}
	.st12{clip-path:url(#SVGID_24_);fill:#FFFFFF;}
	.st13{clip-path:url(#SVGID_26_);fill:#FFFFFF;}
	.st14{clip-path:url(#SVGID_28_);fill:#FFFFFF;}
	.st15{clip-path:url(#SVGID_30_);fill:#FFFFFF;}
	.st16{clip-path:url(#SVGID_32_);fill:#FFFFFF;}
	.st17{clip-path:url(#SVGID_34_);fill:#FFFFFF;}
	.st18{clip-path:url(#SVGID_36_);fill:#FFFFFF;}
	.st19{clip-path:url(#SVGID_38_);fill:#FFFFFF;}
	.st20{clip-path:url(#SVGID_40_);fill:#FFFFFF;}
	.st21{clip-path:url(#SVGID_42_);fill:#FFFFFF;}
	.st22{clip-path:url(#SVGID_44_);fill:#FFFFFF;}
	.st23{clip-path:url(#SVGID_46_);fill:#FFFFFF;}
	.st24{clip-path:url(#SVGID_48_);fill:#FFFFFF;}
	.st25{clip-path:url(#SVGID_50_);fill-rule:evenodd;clip-rule:evenodd;fill:#FFFFFF;}
	.st26{clip-path:url(#SVGID_52_);fill:#FFFFFF;}
	.st27{clip-path:url(#SVGID_54_);fill:#FFFFFF;}
	.st28{clip-path:url(#SVGID_56_);fill:#FFFFFF;}
	.st29{clip-path:url(#SVGID_58_);fill:#FFFFFF;}
	.st30{clip-path:url(#SVGID_60_);fill:#FFFFFF;}
	.st31{clip-path:url(#SVGID_62_);fill:#FFFFFF;}
	.st32{clip-path:url(#SVGID_64_);fill:#FFFFFF;}
	.st33{clip-path:url(#SVGID_66_);fill:#FFFFFF;}
	.st34{clip-path:url(#SVGID_68_);fill:#FFFFFF;}
	.st35{clip-path:url(#SVGID_70_);fill:#FFFFFF;}
	.st36{clip-path:url(#SVGID_72_);fill:#FFFFFF;}
	.st37{clip-path:url(#SVGID_74_);fill:#FFFFFF;}
	.st38{clip-path:url(#SVGID_76_);fill-rule:evenodd;clip-rule:evenodd;fill:#FFFFFF;}
	.st39{clip-path:url(#SVGID_78_);fill:#FFFFFF;}
	.st40{clip-path:url(#SVGID_80_);fill:#FFFFFF;}
	.st41{clip-path:url(#SVGID_82_);fill:#FFFFFF;}
	.st42{clip-path:url(#SVGID_84_);fill:#FFFFFF;}
	.st43{clip-path:url(#SVGID_86_);fill:#FFFFFF;}
	.st44{clip-path:url(#SVGID_88_);fill:#FFFFFF;}
	.st45{clip-path:url(#SVGID_90_);fill:#FFFFFF;}
	.st46{clip-path:url(#SVGID_92_);fill:#FFFFFF;}
	.st47{clip-path:url(#SVGID_94_);fill:#FFFFFF;}
	.st48{clip-path:url(#SVGID_96_);fill:#FFFFFF;}
	.st49{clip-path:url(#SVGID_98_);fill:#FFFFFF;}
	.st50{clip-path:url(#SVGID_100_);fill:#FFFFFF;}
	.st51{clip-path:url(#SVGID_102_);fill:#FFFFFF;}
	.st52{clip-path:url(#SVGID_104_);fill:#FFFFFF;}
	.st53{clip-path:url(#SVGID_106_);fill:#FFFFFF;}
	.st54{clip-path:url(#SVGID_108_);fill:#FFFFFF;}
	.st55{clip-path:url(#SVGID_110_);fill:#FFFFFF;}
	.st56{clip-path:url(#SVGID_112_);fill:#FFFFFF;}
	.st57{clip-path:url(#SVGID_114_);fill:#FFFFFF;}
	.st58{clip-path:url(#SVGID_116_);fill:none;stroke:#FFFFFF;stroke-width:0.9537;stroke-miterlimit:4.6095;}
	.st59{clip-path:url(#SVGID_118_);fill:#FFFFFF;}
	.st60{clip-path:url(#SVGID_120_);fill:#FFFFFF;}
	.st61{clip-path:url(#SVGID_122_);fill:#FFFFFF;}
	.st62{clip-path:url(#SVGID_124_);fill:#FFFFFF;}
	.st63{clip-path:url(#SVGID_126_);fill:#FFFFFF;}
	.st64{clip-path:url(#SVGID_128_);fill:#FFFFFF;}
	.st65{clip-path:url(#SVGID_130_);fill:#FFFFFF;}
	.st66{clip-path:url(#SVGID_132_);fill:#FFFFFF;}
	.st67{clip-path:url(#SVGID_134_);fill:#FFFFFF;}
	.st68{clip-path:url(#SVGID_136_);fill:#FFFFFF;}
	.st69{clip-path:url(#SVGID_138_);fill:#FFFFFF;}
	.st70{clip-path:url(#SVGID_140_);fill:none;stroke:#FFFFFF;stroke-width:0.9537;stroke-miterlimit:4.6095;}
	.st71{clip-path:url(#SVGID_142_);fill:none;stroke:#FFFFFF;stroke-width:0.7336;stroke-linecap:round;stroke-miterlimit:4.6095;}
	.st72{clip-path:url(#SVGID_144_);fill:#FFFFFF;}
	.st73{clip-path:url(#SVGID_146_);fill:#FFFFFF;}
	.st74{clip-path:url(#SVGID_148_);fill:#FFFFFF;}
	.st75{clip-path:url(#SVGID_150_);fill:none;stroke:#FFFFFF;stroke-width:0.9537;stroke-miterlimit:4.6095;}
</style>
<rect class="st0" width="206.5" height="173.3"/>
<g>
	<g>
		<g>
			<defs>
				<rect id="SVGID_1_" x="-14.3" y="-20.2" width="235.1" height="222.6"/>
			</defs>
			<clipPath id="SVGID_2_">
				<use xlink:href="#SVGID_1_"  style="overflow:visible;"/>
			</clipPath>
			<path class="st1" d="M82.2,62.5c0.2,0.5,0.2,1.4,0.1,1.5c-0.5,0.3-3.7,2.5-5,3.3L77.1,66L82.2,62.5z"/>
		</g>
	</g>
	<g>
		<g>
			<defs>
				<rect id="SVGID_3_" x="-14.3" y="-20.2" width="235.1" height="222.6"/>
			</defs>
			<clipPath id="SVGID_4_">
				<use xlink:href="#SVGID_3_"  style="overflow:visible;"/>
			</clipPath>
			<path class="st2" d="M79,67.3l0.3,1.7c-1.2,1-1.7,2.3-1.8,3.8C76.7,70.8,76.8,69,79,67.3"/>
		</g>
	</g>
	<g>
		<g>
			<defs>
				<rect id="SVGID_5_" x="-14.3" y="-20.2" width="235.1" height="222.6"/>
			</defs>
			<clipPath id="SVGID_6_">
				<use xlink:href="#SVGID_5_"  style="overflow:visible;"/>
			</clipPath>
			<path class="st3" d="M74.2,74.4c0-0.3-0.1-0.9-0.1-1.2c0.6,0,2.9,0,3.7,0c0,0.5,0,0.7,0,1.2C76.5,74.4,75.3,74.4,74.2,74.4"/>
		</g>
	</g>
	<g>
		<g>
			<defs>
				<rect id="SVGID_7_" x="-14.3" y="-20.2" width="235.1" height="222.6"/>
			</defs>
			<clipPath id="SVGID_8_">
				<use xlink:href="#SVGID_7_"  style="overflow:visible;"/>
			</clipPath>
			<polygon class="st4" points="76.1,78.3 76,76.7 79.2,76.6 79.2,78.2 			"/>
		</g>
	</g>
	<g>
		<g>
			<defs>
				<rect id="SVGID_9_" x="-14.3" y="-20.2" width="235.1" height="222.6"/>
			</defs>
			<clipPath id="SVGID_10_">
				<use xlink:href="#SVGID_9_"  style="overflow:visible;"/>
			</clipPath>
			<path class="st5" d="M82.8,71.4c-0.2,0.1-3.5,1.4-3.9,1.6c0.8-1.4,1.4-4.1,1.4-4.4c0.7-0.7,1.3-1,2.4-1.5
				C82.7,67.5,82.9,70.8,82.8,71.4"/>
		</g>
	</g>
	<g>
		<g>
			<defs>
				<rect id="SVGID_11_" x="-14.3" y="-20.2" width="235.1" height="222.6"/>
			</defs>
			<clipPath id="SVGID_12_">
				<use xlink:href="#SVGID_11_"  style="overflow:visible;"/>
			</clipPath>
			<path class="st6" d="M114,52.4c0.9-0.1,1.5-0.9,0.6-1.7c0.6-0.3,1.5-0.9,2.3-1c0,0.7,0,0.9,0,1.5c0.5-0.3,1.3,0.1,1.6,0.6
				c0.6,2-0.6,3.6-0.3,3.5c0,0,0.2,0.3,0.1,0.5c-1.8,1-4.5,2.8-6.7,3.7c0-4.6,0-16.7-0.1-18c0-0.1,1.3-1.4,1.3-1.5
				C112.9,43.3,112.9,52.2,114,52.4"/>
		</g>
	</g>
	<g>
		<g>
			<defs>
				<rect id="SVGID_13_" x="-14.3" y="-20.2" width="235.1" height="222.6"/>
			</defs>
			<clipPath id="SVGID_14_">
				<use xlink:href="#SVGID_13_"  style="overflow:visible;"/>
			</clipPath>
			<path class="st7" d="M111.3,40c-0.1-1.3-0.5-4.6,0-5.4c0.2-0.3,0.7-0.6,0.8-0.5c0.5,0.2,0.5,2.1,0.6,4.5L111.3,40z"/>
		</g>
	</g>
	<g>
		<g>
			<defs>
				<rect id="SVGID_15_" x="-14.3" y="-20.2" width="235.1" height="222.6"/>
			</defs>
			<clipPath id="SVGID_16_">
				<use xlink:href="#SVGID_15_"  style="overflow:visible;"/>
			</clipPath>
			<path class="st8" d="M112.6,33.4c-0.1,0-1.5,0.5-1.6,0.6c-0.1-2.8-0.8-5.5-2.2-7.3c0-0.3,0-0.5-0.1-0.8
				C111.3,26.7,112.4,29.9,112.6,33.4"/>
		</g>
	</g>
	<g>
		<g>
			<defs>
				<rect id="SVGID_17_" x="-14.3" y="-20.2" width="235.1" height="222.6"/>
			</defs>
			<clipPath id="SVGID_18_">
				<use xlink:href="#SVGID_17_"  style="overflow:visible;"/>
			</clipPath>
			<path class="st9" d="M103,21.9l1.6,1.4v1.2l-1.8-0.1c-1,0.1-1.4,0.2-2.1,0.3c-0.1-0.5-0.1-1.3-0.1-1.8
				C101.1,22.4,102.3,22.1,103,21.9"/>
		</g>
	</g>
	<g>
		<g>
			<defs>
				<rect id="SVGID_19_" x="-14.3" y="-20.2" width="235.1" height="222.6"/>
			</defs>
			<clipPath id="SVGID_20_">
				<use xlink:href="#SVGID_19_"  style="overflow:visible;"/>
			</clipPath>
			<path class="st10" d="M94.2,29.6c-0.6,1.4,0.6-2,3.5-2.5c1.6,0,2.2,1.5,2.3,2c0.6,0,0.9-1,0.8-1.7c0.2,2,0.1,3.7,0,5.6
				c-1.3,0.1-2.3,0.1-3,0.2c-0.5,0.3,0.3,0.5,0,0.8c-1.8,0.5-3.5,1-5.2,1.5C92.7,33,93.4,31.2,94.2,29.6"/>
		</g>
	</g>
	<g>
		<g>
			<defs>
				<rect id="SVGID_21_" x="-14.3" y="-20.2" width="235.1" height="222.6"/>
			</defs>
			<clipPath id="SVGID_22_">
				<use xlink:href="#SVGID_21_"  style="overflow:visible;"/>
			</clipPath>
			<path class="st11" d="M99.4,39.3c-2.8,0.3-4.6,0.5-6.6,1.7c-0.1-0.8-0.2-1,0-1.3c0.5-0.1,0.8-0.2,0.7-0.9c1.8-0.8,3.2-1,6.3-1.6
				c0-0.1,0-0.2,0-0.3c0.1,0,3-0.2,3-0.2c0.1,0.2,0,1.4,0.1,1.6C102.6,38.3,99.1,38.2,99.4,39.3"/>
		</g>
	</g>
	<g>
		<g>
			<defs>
				<rect id="SVGID_23_" x="-14.3" y="-20.2" width="235.1" height="222.6"/>
			</defs>
			<clipPath id="SVGID_24_">
				<use xlink:href="#SVGID_23_"  style="overflow:visible;"/>
			</clipPath>
			<path class="st12" d="M99,35.2c-0.7,0,0,0.6-0.1,1c-2.2,0.3-4.3,0.8-6,1.6c0.2-0.3-0.2-0.8-0.1-1.6c1.6-0.6,3.8-1,5.5-1.4
				c0,0-0.1-0.3,0.1-0.6c1.2-0.1,4.5-0.2,5.3-0.3c0.5,0,0.3,0.6,0.3,1C102.6,35,100.7,35.1,99,35.2"/>
		</g>
	</g>
	<g>
		<g>
			<defs>
				<rect id="SVGID_25_" x="-14.3" y="-20.2" width="235.1" height="222.6"/>
			</defs>
			<clipPath id="SVGID_26_">
				<use xlink:href="#SVGID_25_"  style="overflow:visible;"/>
			</clipPath>
			<path class="st13" d="M88.8,38.2c0.7-0.6,2.2-1.2,2.9-1.6c0,0.6,0.1,1.5-0.1,1.6c-0.6,0.5-2.2,0.9-2.9,1.7
				C88.7,39,88.5,38.5,88.8,38.2"/>
		</g>
	</g>
	<g>
		<g>
			<defs>
				<rect id="SVGID_27_" x="-14.3" y="-20.2" width="235.1" height="222.6"/>
			</defs>
			<clipPath id="SVGID_28_">
				<use xlink:href="#SVGID_27_"  style="overflow:visible;"/>
			</clipPath>
			<path class="st14" d="M91.9,38.9v1.8c-1.8,0.7-2.4,1.3-3.2,1.7c0.1-0.6,0.2-0.9,0.2-1.7C89.7,40.3,91.3,39.3,91.9,38.9"/>
		</g>
	</g>
	<g>
		<g>
			<defs>
				<rect id="SVGID_29_" x="-14.3" y="-20.2" width="235.1" height="222.6"/>
			</defs>
			<clipPath id="SVGID_30_">
				<use xlink:href="#SVGID_29_"  style="overflow:visible;"/>
			</clipPath>
			<path class="st15" d="M88.2,51.9c-0.1-0.1,1,0.7,1,0.7c1,0.1,0.7-7.4,0.5-8.4c-0.1-0.1-0.1-0.1-0.6-0.2c0-0.5-0.5-0.7-0.5-0.8
				c1.3-0.8,2-1.3,3.3-1.6c-0.3,3.7,0.9,13-2.3,13c-0.3,0-1.3-0.3-1.5-1C88.1,52.9,87.9,52.2,88.2,51.9"/>
		</g>
	</g>
	<g>
		<g>
			<defs>
				<rect id="SVGID_31_" x="-14.3" y="-20.2" width="235.1" height="222.6"/>
			</defs>
			<clipPath id="SVGID_32_">
				<use xlink:href="#SVGID_31_"  style="overflow:visible;"/>
			</clipPath>
			<path class="st16" d="M85,62.7c0.7-0.7,5.1-2,8.3-2.3l1.2,1.8c-3.5,0.3-5.9,0.9-8.6,2.3C85.6,64,84.9,62.9,85,62.7"/>
		</g>
	</g>
	<g>
		<g>
			<defs>
				<rect id="SVGID_33_" x="-14.3" y="-20.2" width="235.1" height="222.6"/>
			</defs>
			<clipPath id="SVGID_34_">
				<use xlink:href="#SVGID_33_"  style="overflow:visible;"/>
			</clipPath>
			<path class="st17" d="M102.8,66.7c-9.7-0.5-13.5,1.2-17.4,3.1c-0.1-0.3-0.1-0.8,0.1-1c1-0.7,2.7-1.3,3.1-2.2
				c3.9-1.5,9.6-1.8,14.3-1.7C102.8,65.1,102.8,66.7,102.8,66.7"/>
		</g>
	</g>
	<g>
		<g>
			<defs>
				<rect id="SVGID_35_" x="-14.3" y="-20.2" width="235.1" height="222.6"/>
			</defs>
			<clipPath id="SVGID_36_">
				<use xlink:href="#SVGID_35_"  style="overflow:visible;"/>
			</clipPath>
			<path class="st18" d="M97,62.3c1.6,0,3.5-0.1,5.1-0.1c0,0.3,0,0.9,0,1.3h0.6c0,0.1,0,0.2,0,0.3c-2.2,0.1-4.3,0-6.1,0.1
				c-0.1-0.1,0-0.3,0-0.3c0-0.1,0.5,0,0.5,0C97,63.2,97,62.7,97,62.3"/>
		</g>
	</g>
	<g>
		<g>
			<defs>
				<rect id="SVGID_37_" x="-14.3" y="-20.2" width="235.1" height="222.6"/>
			</defs>
			<clipPath id="SVGID_38_">
				<use xlink:href="#SVGID_37_"  style="overflow:visible;"/>
			</clipPath>
			<path class="st19" d="M104,60.4c-2.3,0-7.6-0.1-9.9,0c0-0.2-0.1-1.3,0.2-1.3c2.2,0,7.8-0.1,9.8,0C104.3,59.4,104.4,60.4,104,60.4
				"/>
		</g>
	</g>
	<g>
		<g>
			<defs>
				<rect id="SVGID_39_" x="-14.3" y="-20.2" width="235.1" height="222.6"/>
			</defs>
			<clipPath id="SVGID_40_">
				<use xlink:href="#SVGID_39_"  style="overflow:visible;"/>
			</clipPath>
			<path class="st20" d="M104.7,32.8c-0.5,0-1.6,0.1-2.1,0.1c-0.2-1.5-0.1-3.6,0-5.2c1.5-0.6,4.3,1.7,4.6,2.9
				c0.7,0.6,0.6,1.4,0.6,2.2C106,32.6,106.1,32.8,104.7,32.8"/>
		</g>
	</g>
	<g>
		<g>
			<defs>
				<rect id="SVGID_41_" x="-14.3" y="-20.2" width="235.1" height="222.6"/>
			</defs>
			<clipPath id="SVGID_42_">
				<use xlink:href="#SVGID_41_"  style="overflow:visible;"/>
			</clipPath>
			<path class="st21" d="M114.3,59.3l-0.1-0.7c0.9-0.5,3.6-2.1,4.3-2.4c0,0.2,0.5,5.2,0.2,5.3c-0.1,0-1.3,0.9-2.4,1.4
				C117.4,60.2,114.6,59.3,114.3,59.3"/>
		</g>
	</g>
	<g>
		<g>
			<defs>
				<rect id="SVGID_43_" x="-14.3" y="-20.2" width="235.1" height="222.6"/>
			</defs>
			<clipPath id="SVGID_44_">
				<use xlink:href="#SVGID_43_"  style="overflow:visible;"/>
			</clipPath>
			<path class="st22" d="M119,67.7c-0.3,0.2-1.2,1.5-2.4,1c0.9-0.7,0.1-2.1,0-2.1c1-0.8,1.2-0.7,1.4-1.8c0.1-0.1,0.5-0.5,0.7-0.5
				C118.9,65.2,119,67.5,119,67.7"/>
		</g>
	</g>
	<g>
		<g>
			<defs>
				<rect id="SVGID_45_" x="-14.3" y="-20.2" width="235.1" height="222.6"/>
			</defs>
			<clipPath id="SVGID_46_">
				<use xlink:href="#SVGID_45_"  style="overflow:visible;"/>
			</clipPath>
			<path class="st23" d="M126.6,64.3c0.7,0.1,1.6-0.1,2.2-0.1c0,0.8,0,2.4,0.1,3C126.8,66.5,126.8,65.2,126.6,64.3"/>
		</g>
	</g>
	<g>
		<g>
			<defs>
				<rect id="SVGID_47_" x="-14.3" y="-20.2" width="235.1" height="222.6"/>
			</defs>
			<clipPath id="SVGID_48_">
				<use xlink:href="#SVGID_47_"  style="overflow:visible;"/>
			</clipPath>
			<path class="st24" d="M126.5,63.5c0.1-0.2,0.5-1.8-0.8-2.3c-0.1-1.2-0.2-2.3-0.3-3.6c0.2,0,1.2-0.1,1.4-0.1
				c0.2,0.2,0.1,0.8,0.1,1.3C129.5,59.1,130.2,63.7,126.5,63.5"/>
		</g>
	</g>
	<g>
		<g>
			<defs>
				<rect id="SVGID_49_" x="-14.3" y="-20.2" width="235.1" height="222.6"/>
			</defs>
			<clipPath id="SVGID_50_">
				<use xlink:href="#SVGID_49_"  style="overflow:visible;"/>
			</clipPath>
			<path class="st25" d="M109.1,45c-2,1.6-1.2,0.5-0.1-1c0.2-0.1,0.8-0.2,0.9-0.3c0.7,0.6,0.8,1.6,0.9,3.1c0,0.3-0.3,3.5-2.4,4.1
				c-0.6-1.2-1.2-1.8-1.2-3c0.2-0.2,1,0.8,1.5,1.3c0.8-0.7,0.8-0.9,0.9-1.7C109.8,46,109.3,45.5,109.1,45"/>
		</g>
	</g>
	<g>
		<g>
			<defs>
				<rect id="SVGID_51_" x="-14.3" y="-20.2" width="235.1" height="222.6"/>
			</defs>
			<clipPath id="SVGID_52_">
				<use xlink:href="#SVGID_51_"  style="overflow:visible;"/>
			</clipPath>
			<path class="st26" d="M104.5,57.7c-1.4,0-9.6,0-12,0c0.1-3.6,0.1-6.7,0.2-9c0-2.1-0.6-6.1,1.2-7c-0.1-0.1-0.2-0.2-0.3-0.5
				c0.6-0.2,4.3-1.5,6.6-1.4c0.3,0-0.2-0.5,0.1-0.6c0.7-0.1,2.1-0.2,2.9,0v8.6l-0.6-1.3c-0.6,0-0.7,0-1.2,0l-0.1-6.8
				c0,0,0.8,0,1.2,0l0.3-0.5c-0.5-0.1-1.6,0-2,0c0,1-0.1,6.2,0,7.1h-2l0.3,2.7c0-0.5,0.3-1.8,0.3-1.8h2.9l-0.3,3.9h-2.4l-0.6-2
				l-0.2,4.3c0,0,2,0,2.8,0v2.8c0.8,0.6,2.3-0.2,3,0.1C104.4,56.8,104.5,57.7,104.5,57.7 M94.6,51.9c1.3,1.5,2.7,0.3,3.7-0.5l0.3-2
				C97.8,50.7,96.2,52.8,94.6,51.9 M95.8,43.2c-2.5,2.2-2.5,5.6-1.2,7.3c0.8,0.7,2.2,0.5,2.9-1c0.7-1.8,0.7-3,0.1-4.8
				C97.6,43.9,96.6,42.8,95.8,43.2"/>
		</g>
	</g>
	<g>
		<g>
			<defs>
				<rect id="SVGID_53_" x="-14.3" y="-20.2" width="235.1" height="222.6"/>
			</defs>
			<clipPath id="SVGID_54_">
				<use xlink:href="#SVGID_53_"  style="overflow:visible;"/>
			</clipPath>
			<path class="st27" d="M109.1,45c-2,1.6-1.2,0.5-0.1-1c0.2-0.1,0.8-0.2,0.9-0.3c0.7,0.6,0.8,1.6,0.9,3.1c0,0.3-0.3,3.5-2.4,4.1
				c-0.6-1.2-1.2-1.8-1.2-3c0.2-0.2,1,0.8,1.5,1.3c0.8-0.7,0.8-0.9,0.9-1.7C109.8,46,109.3,45.5,109.1,45"/>
		</g>
	</g>
	<g>
		<g>
			<defs>
				<rect id="SVGID_55_" x="-14.3" y="-20.2" width="235.1" height="222.6"/>
			</defs>
			<clipPath id="SVGID_56_">
				<use xlink:href="#SVGID_55_"  style="overflow:visible;"/>
			</clipPath>
			<path class="st28" d="M106.4,96.5c0.1-1.7,6.5-0.8,7.3,0.9C111.4,97,108.5,96.4,106.4,96.5"/>
		</g>
	</g>
	<g>
		<g>
			<defs>
				<rect id="SVGID_57_" x="-14.3" y="-20.2" width="235.1" height="222.6"/>
			</defs>
			<clipPath id="SVGID_58_">
				<use xlink:href="#SVGID_57_"  style="overflow:visible;"/>
			</clipPath>
			<path class="st29" d="M106.4,93.9c0.1-1.7,6.5-0.9,7.3,0.9C111.4,94.4,108.5,93.8,106.4,93.9"/>
		</g>
	</g>
	<g>
		<g>
			<defs>
				<rect id="SVGID_59_" x="-14.3" y="-20.2" width="235.1" height="222.6"/>
			</defs>
			<clipPath id="SVGID_60_">
				<use xlink:href="#SVGID_59_"  style="overflow:visible;"/>
			</clipPath>
			<path class="st30" d="M106.4,91.2c0.1-1.7,6.5-0.9,7.3,0.9C111.4,91.7,108.5,91,106.4,91.2"/>
		</g>
	</g>
	<g>
		<g>
			<defs>
				<rect id="SVGID_61_" x="-14.3" y="-20.2" width="235.1" height="222.6"/>
			</defs>
			<clipPath id="SVGID_62_">
				<use xlink:href="#SVGID_61_"  style="overflow:visible;"/>
			</clipPath>
			<path class="st31" d="M106.4,88.5c0.1-1.7,6.5-0.9,7.3,0.9C111.4,88.9,108.5,88.4,106.4,88.5"/>
		</g>
	</g>
	<g>
		<g>
			<defs>
				<rect id="SVGID_63_" x="-14.3" y="-20.2" width="235.1" height="222.6"/>
			</defs>
			<clipPath id="SVGID_64_">
				<use xlink:href="#SVGID_63_"  style="overflow:visible;"/>
			</clipPath>
			<path class="st32" d="M106.4,85.8c0.1-1.7,6.5-0.9,7.3,0.9C111.4,86.3,108.5,85.7,106.4,85.8"/>
		</g>
	</g>
	<g>
		<g>
			<defs>
				<rect id="SVGID_65_" x="-14.3" y="-20.2" width="235.1" height="222.6"/>
			</defs>
			<clipPath id="SVGID_66_">
				<use xlink:href="#SVGID_65_"  style="overflow:visible;"/>
			</clipPath>
			<path class="st33" d="M106.4,83.2c0.1-1.7,6.5-0.9,7.3,0.9C111.4,83.6,108.5,82.9,106.4,83.2"/>
		</g>
	</g>
	<g>
		<g>
			<defs>
				<rect id="SVGID_67_" x="-14.3" y="-20.2" width="235.1" height="222.6"/>
			</defs>
			<clipPath id="SVGID_68_">
				<use xlink:href="#SVGID_67_"  style="overflow:visible;"/>
			</clipPath>
			<path class="st34" d="M106.4,80.4c0.1-1.7,6.5-0.9,7.3,0.9C111.4,80.9,108.5,80.3,106.4,80.4"/>
		</g>
	</g>
	<g>
		<g>
			<defs>
				<rect id="SVGID_69_" x="-14.3" y="-20.2" width="235.1" height="222.6"/>
			</defs>
			<clipPath id="SVGID_70_">
				<use xlink:href="#SVGID_69_"  style="overflow:visible;"/>
			</clipPath>
			<path class="st35" d="M106.4,77.8c0.1-1.7,6.5-0.8,7.3,0.9C111.4,78.2,108.5,77.6,106.4,77.8"/>
		</g>
	</g>
	<g>
		<g>
			<defs>
				<rect id="SVGID_71_" x="-14.3" y="-20.2" width="235.1" height="222.6"/>
			</defs>
			<clipPath id="SVGID_72_">
				<use xlink:href="#SVGID_71_"  style="overflow:visible;"/>
			</clipPath>
			<path class="st36" d="M106.4,75.1c0.1-1.7,6.5-0.9,7.3,0.9C111.4,75.6,108.5,74.9,106.4,75.1"/>
		</g>
	</g>
	<g>
		<g>
			<defs>
				<rect id="SVGID_73_" x="-14.3" y="-20.2" width="235.1" height="222.6"/>
			</defs>
			<clipPath id="SVGID_74_">
				<use xlink:href="#SVGID_73_"  style="overflow:visible;"/>
			</clipPath>
			<path class="st37" d="M110.5,109.3l-0.1-9.7l-4.1-0.6c0,0.2-0.1,9.9,0,10.3H110.5L110.5,109.3z"/>
		</g>
	</g>
	<g>
		<g>
			<defs>
				<rect id="SVGID_75_" x="-14.3" y="-20.2" width="235.1" height="222.6"/>
			</defs>
			<clipPath id="SVGID_76_">
				<use xlink:href="#SVGID_75_"  style="overflow:visible;"/>
			</clipPath>
			<path class="st38" d="M95.3,78.5c-2.8,0.7-5.5,1.4-7.8,2.5v-1.8c1.5-0.7,5.8-2.1,7.8-2.3C95.3,77.1,95.3,78.2,95.3,78.5
				 M87.4,82.4l0.1,1.7c2-0.8,5.1-1.8,7.8-2.4c0-0.3,0-1.8,0-1.8C93.4,80.2,89.8,81.3,87.4,82.4 M87.4,85.5v1.7
				c2.4-1.2,5.1-1.8,7.8-2.4v-1.8C92.2,83.6,90.3,84.4,87.4,85.5 M87.4,88.6v1.7c2.4-1.2,5-1.7,7.7-2.2c0-0.2,0.1-1.7,0.1-2
				C92.2,86.9,90,87.6,87.4,88.6 M87.4,91.7v1.8c1.7-1,4.5-1.8,7.8-2.4c0-0.2,0-1.6,0-1.8C92.4,89.9,89.4,90.7,87.4,91.7 M87.4,95
				v1.8c2.3-0.9,5-2.1,7.8-2.4v-1.8C92.5,93.1,90,93.9,87.4,95 M87.4,98.2c0,0.5,0,1.7,0,1.7c2-0.8,7.8-2.3,7.8-2.3l-0.1-1.8
				C92.5,96.4,89.8,97,87.4,98.2 M100.6,109.3c0-0.1,0-27.2,0-39.9c-0.3-0.3-1.4-0.5-2.3-0.1c0,0-1.3-1.3-1.8-2
				c-4.6,0.6-8.6,2-10.6,3.1c0.6,1.2,1.6,3.6-0.2,4.1v34.6L100.6,109.3L100.6,109.3z M90.3,74.3c0.7-0.2,4.1-1.2,5,1.6
				c-4.4,0.2-7.8,2.2-7.8,2.2C87.3,76.8,89.3,74.8,90.3,74.3"/>
		</g>
	</g>
</g>
<g>
	<g>
		<g>
			<defs>
				<rect id="SVGID_77_" x="1.3" y="2" width="203.7" height="169.1"/>
			</defs>
			<clipPath id="SVGID_78_">
				<use xlink:href="#SVGID_77_"  style="overflow:visible;"/>
			</clipPath>
			<path class="st39" d="M83.3,109.3h-6.3l0.2-26.6c0.2-0.5,0.1-0.7,1.2-1.2c0.6-0.1,0.8,0.1,1.3,0.1v-1.5h-3.2l-0.1-0.9h3.5
				c0-0.5,0-1.6,0-2.4c0-0.5-0.1-1.2,0.1-1.7c0.2-0.6,1.5-1.2,2.1-1.2c0.6-0.1,1.3,0,1.6,0.3C83.3,85.8,83.3,97.6,83.3,109.3
				 M79.9,106.2c0-0.6,0.5-1,0.7-1.5c0.2-0.3,0.5-23.5,0.3-23.9c-0.3,0.3-1,0.6-1.3,1.2C79.8,82,79.6,105.9,79.9,106.2"/>
		</g>
	</g>
	<g>
		<g>
			<defs>
				<rect id="SVGID_79_" x="1.3" y="2" width="203.7" height="169.1"/>
			</defs>
			<clipPath id="SVGID_80_">
				<use xlink:href="#SVGID_79_"  style="overflow:visible;"/>
			</clipPath>
			<path class="st40" d="M105.6,19.1c-0.6-0.6-1.2-0.7-1.6-0.9c0-0.8-0.1-2-0.1-3.3c3.5,0.8,5.9,1.2,6.3,1.3
				c0.6,0.1,1.3-0.5,0.7-0.7c-0.5-0.2-2.7-0.6-6.1-1.3l4.7-3.5c0,0,0.5-1.3-0.5-0.9c-0.5,0.1-2.2,1.6-5.2,3.9c0-1.7-0.1-3.8-0.1-5.5
				c0.6,0.1,1.3,0.1,1.7-0.5c0.5-0.5,0.5-1.6-0.1-1.7l1-0.5v0.9c1.2-1.3,2.8-2.4,2.8-2.4s-1.7,0.7-2.9,0.5v0.7l-1,0.5
				c0.7-1-0.6-1.5-0.9-1.4c-0.3,0.1-0.6,0.2-0.8,0.5c0-1.2-0.1-2-0.1-2.2c-0.1-0.8-0.5-0.6-0.6,0c0,0.1,0,1.4-0.1,3
				c-0.1-0.1-0.3-0.1-0.8-0.1c-0.9,0.1-4.3,3.6-5.2,4c0.8,0.5,0.9,0.3,0.3,1.4c0.5-0.2,2.2-0.8,4-1.2c0.9-0.1,1.3-0.5,1.5-0.6
				c0,0,0.1,0,0.1-0.1c0,1.6-0.1,3.2-0.1,4.7C99,13,96,12.4,95.5,12.4c-0.9-0.1,0,0.5,0,0.5s3.3,0.9,7.1,1.7
				c-2.8,2.2-4.4,3.6-4.7,3.9c-0.8,0.7,0.2,0.3,0.2,0.3l4.5-3.1v2.5c-1.2,0.3-1,0.3-1.7,1.2c0,0-0.6,2.8-0.3,2.7
				c1.4-0.6,1.2-0.9,2.4-0.7c0.2,0,0.9-1.6,1.5-1.7C105.1,19.4,105.6,19.1,105.6,19.1"/>
		</g>
	</g>
</g>
<g>
	<g>
		<g>
			<defs>
				<rect id="SVGID_81_" x="-14.3" y="-20.2" width="235.1" height="222.6"/>
			</defs>
			<clipPath id="SVGID_82_">
				<use xlink:href="#SVGID_81_"  style="overflow:visible;"/>
			</clipPath>
			<path class="st41" d="M83.5,53.6c0.5-0.5,1.5-1.5,2-1.8c0,0.5,0,1.4,0,2c-1.2,0-1.7,1.8-1.7,3.6c0,0.1,0.5,3.5,0.1,4.4l-1.5-0.6
				c-0.1,0.1-0.2,0.2-0.3,0.2C81.3,58.7,82.1,56.3,83.5,53.6"/>
		</g>
	</g>
	<g>
		<g>
			<defs>
				<rect id="SVGID_83_" x="-14.3" y="-20.2" width="235.1" height="222.6"/>
			</defs>
			<clipPath id="SVGID_84_">
				<use xlink:href="#SVGID_83_"  style="overflow:visible;"/>
			</clipPath>
			<path class="st42" d="M117,109.3c-0.1-11.9-0.2-24-0.3-34.5c0.3-0.2,0.3-0.9,0.8-1.3v-1.5c0.2-0.5,1.3-0.7,1.8-0.3
				c0.3,12.4,0.5,25.4,0.9,37.6L117,109.3z"/>
		</g>
	</g>
	<g>
		<g>
			<defs>
				<rect id="SVGID_85_" x="-14.3" y="-20.2" width="235.1" height="222.6"/>
			</defs>
			<clipPath id="SVGID_86_">
				<use xlink:href="#SVGID_85_"  style="overflow:visible;"/>
			</clipPath>
			<path class="st43" d="M45.3,160.4c0.3,0.2,1.2,0.6,2.1,0.6c0.8,0,1.5-0.5,1.5-1.4c0-0.7-0.5-1-1.3-1.5l-0.9-0.5
				c-0.9-0.6-1.6-1.3-1.6-2.5c0-1.7,1.4-2.7,3.1-2.7c1,0,1.7,0.2,2.1,0.3l-0.1,1.5c-0.5-0.1-1-0.5-1.8-0.5c-0.9,0-1.4,0.5-1.4,1.2
				c0,0.7,0.5,1,1,1.3l1,0.6c1.2,0.7,1.7,1.3,1.7,2.7c0,2-1.4,2.9-3.2,2.9c-0.9,0-1.7-0.1-2.2-0.5L45.3,160.4z"/>
		</g>
	</g>
	<g>
		<g>
			<defs>
				<rect id="SVGID_87_" x="-14.3" y="-20.2" width="235.1" height="222.6"/>
			</defs>
			<clipPath id="SVGID_88_">
				<use xlink:href="#SVGID_87_"  style="overflow:visible;"/>
			</clipPath>
			<polygon class="st44" points="53.9,153.9 51.7,153.9 51.7,152.4 57.8,152.4 57.8,153.9 55.6,153.9 55.6,162.2 53.9,162.2 			"/>
		</g>
	</g>
	<g>
		<g>
			<defs>
				<rect id="SVGID_89_" x="-14.3" y="-20.2" width="235.1" height="222.6"/>
			</defs>
			<clipPath id="SVGID_90_">
				<use xlink:href="#SVGID_89_"  style="overflow:visible;"/>
			</clipPath>
			<path class="st45" d="M64,159.9h-3.3l-0.7,2.3h-1.7l3.2-9.8h2l3.1,9.8h-1.8L64,159.9z M63.6,158.5l-1.3-4.5l0,0l-1.4,4.5H63.6z"
				/>
		</g>
	</g>
	<g>
		<g>
			<defs>
				<rect id="SVGID_91_" x="-14.3" y="-20.2" width="235.1" height="222.6"/>
			</defs>
			<clipPath id="SVGID_92_">
				<use xlink:href="#SVGID_91_"  style="overflow:visible;"/>
			</clipPath>
			<polygon class="st46" points="68.8,153.9 66.6,153.9 66.6,152.4 72.7,152.4 72.7,153.9 70.6,153.9 70.6,162.2 68.8,162.2 			"/>
		</g>
	</g>
	<g>
		<g>
			<defs>
				<rect id="SVGID_93_" x="-14.3" y="-20.2" width="235.1" height="222.6"/>
			</defs>
			<clipPath id="SVGID_94_">
				<use xlink:href="#SVGID_93_"  style="overflow:visible;"/>
			</clipPath>
			<polygon class="st47" points="74.4,152.4 79.5,152.4 79.5,153.9 76.1,153.9 76.1,156.5 79.4,156.5 79.4,158 76.1,158 76.1,160.8
				79.6,160.8 79.6,162.2 74.4,162.2 			"/>
		</g>
	</g>
	<g>
		<g>
			<defs>
				<rect id="SVGID_95_" x="-14.3" y="-20.2" width="235.1" height="222.6"/>
			</defs>
			<clipPath id="SVGID_96_">
				<use xlink:href="#SVGID_95_"  style="overflow:visible;"/>
			</clipPath>
			<path class="st48" d="M89.8,152.4v6.3c0,1.6,0.5,2.2,1.5,2.2c1,0,1.5-0.6,1.5-2.2v-6.3h1.7v6.3c0,2.5-1.5,3.6-3.3,3.6
				c-1.8,0-3.3-1-3.3-3.6v-6.3H89.8z"/>
		</g>
	</g>
	<g>
		<g>
			<defs>
				<rect id="SVGID_97_" x="-14.3" y="-20.2" width="235.1" height="222.6"/>
			</defs>
			<clipPath id="SVGID_98_">
				<use xlink:href="#SVGID_97_"  style="overflow:visible;"/>
			</clipPath>
			<polygon class="st49" points="97.1,152.4 99.3,152.4 102.5,160.2 102.5,160.2 102.5,152.4 104.1,152.4 104.1,162.2 101.9,162.2
				98.8,154.6 98.7,154.6 98.7,162.2 97.1,162.2 			"/>
		</g>
	</g>
	<g>
		<g>
			<defs>
				<rect id="SVGID_99_" x="-14.3" y="-20.2" width="235.1" height="222.6"/>
			</defs>
			<clipPath id="SVGID_100_">
				<use xlink:href="#SVGID_99_"  style="overflow:visible;"/>
			</clipPath>
			<rect x="106.7" y="152.5" class="st50" width="1.7" height="9.8"/>
		</g>
	</g>
	<g>
		<g>
			<defs>
				<rect id="SVGID_101_" x="-14.3" y="-20.2" width="235.1" height="222.6"/>
			</defs>
			<clipPath id="SVGID_102_">
				<use xlink:href="#SVGID_101_"  style="overflow:visible;"/>
			</clipPath>
			<polygon class="st51" points="110.4,152.4 112.3,152.4 114.3,160 114.3,160 116.4,152.4 118.1,152.4 115.2,162.2 113.2,162.2
				"/>
		</g>
	</g>
	<g>
		<g>
			<defs>
				<rect id="SVGID_103_" x="-14.3" y="-20.2" width="235.1" height="222.6"/>
			</defs>
			<clipPath id="SVGID_104_">
				<use xlink:href="#SVGID_103_"  style="overflow:visible;"/>
			</clipPath>
			<polygon class="st52" points="119.8,152.4 124.9,152.4 124.9,153.9 121.5,153.9 121.5,156.5 124.7,156.5 124.7,158 121.5,158
				121.5,160.8 125,160.8 125,162.2 119.8,162.2 			"/>
		</g>
	</g>
	<g>
		<g>
			<defs>
				<rect id="SVGID_105_" x="-14.3" y="-20.2" width="235.1" height="222.6"/>
			</defs>
			<clipPath id="SVGID_106_">
				<use xlink:href="#SVGID_105_"  style="overflow:visible;"/>
			</clipPath>
			<path class="st53" d="M127.4,152.4h3c1.7,0,2.9,0.8,2.9,2.5c0,1.3-0.8,2.1-1.8,2.3l0,0c0.3,0,0.8,0.2,1,1.2l1.3,3.7h-1.8
				l-0.9-3.2c-0.2-0.8-0.7-1-1.4-1h-0.5v4.1h-1.7V152.4z M130,156.7c0.9,0,1.6-0.5,1.6-1.5c0-1.2-0.6-1.4-1.6-1.4h-0.8v2.9H130z"/>
		</g>
	</g>
	<g>
		<g>
			<defs>
				<rect id="SVGID_107_" x="-14.3" y="-20.2" width="235.1" height="222.6"/>
			</defs>
			<clipPath id="SVGID_108_">
				<use xlink:href="#SVGID_107_"  style="overflow:visible;"/>
			</clipPath>
			<path class="st54" d="M135.8,160.4c0.3,0.2,1.2,0.6,2.1,0.6c0.8,0,1.5-0.5,1.5-1.4c0-0.7-0.5-1-1.3-1.5l-0.9-0.5
				c-0.9-0.6-1.6-1.3-1.6-2.5c0-1.7,1.4-2.7,3.1-2.7c1,0,1.7,0.2,2.1,0.3l-0.1,1.5c-0.5-0.1-1-0.5-1.8-0.5c-0.9,0-1.4,0.5-1.4,1.2
				c0,0.7,0.5,1,1,1.3l1,0.6c1.2,0.7,1.7,1.3,1.7,2.7c0,2-1.4,2.9-3.2,2.9c-0.9,0-1.7-0.1-2.2-0.5L135.8,160.4z"/>
		</g>
	</g>
	<g>
		<g>
			<defs>
				<rect id="SVGID_109_" x="-14.3" y="-20.2" width="235.1" height="222.6"/>
			</defs>
			<clipPath id="SVGID_110_">
				<use xlink:href="#SVGID_109_"  style="overflow:visible;"/>
			</clipPath>
			<rect x="143.4" y="152.5" class="st55" width="1.7" height="9.8"/>
		</g>
	</g>
	<g>
		<g>
			<defs>
				<rect id="SVGID_111_" x="-14.3" y="-20.2" width="235.1" height="222.6"/>
			</defs>
			<clipPath id="SVGID_112_">
				<use xlink:href="#SVGID_111_"  style="overflow:visible;"/>
			</clipPath>
			<polygon class="st56" points="149.5,153.9 147.4,153.9 147.4,152.4 153.5,152.4 153.5,153.9 151.3,153.9 151.3,162.2
				149.5,162.2 			"/>
		</g>
	</g>
	<g>
		<g>
			<defs>
				<rect id="SVGID_113_" x="-14.3" y="-20.2" width="235.1" height="222.6"/>
			</defs>
			<clipPath id="SVGID_114_">
				<use xlink:href="#SVGID_113_"  style="overflow:visible;"/>
			</clipPath>
			<polygon class="st57" points="157.5,158.3 154.6,152.4 156.6,152.4 158.4,156.4 160.1,152.4 162.1,152.4 159.2,158.3
				159.2,162.2 157.5,162.2 			"/>
		</g>
	</g>
</g>
<g>
	<g>
		<g>
			<defs>
				<rect id="SVGID_115_" x="1.3" y="2" width="203.7" height="169.1"/>
			</defs>
			<clipPath id="SVGID_116_">
				<use xlink:href="#SVGID_115_"  style="overflow:visible;"/>
			</clipPath>
			<line class="st58" x1="1.3" y1="109.3" x2="205.1" y2="109.3"/>
		</g>
	</g>
</g>
<g>
	<g>
		<g>
			<defs>
				<rect id="SVGID_117_" x="-14.3" y="-20.2" width="235.1" height="222.6"/>
			</defs>
			<clipPath id="SVGID_118_">
				<use xlink:href="#SVGID_117_"  style="overflow:visible;"/>
			</clipPath>
			<path class="st59" d="M4.9,120.3c0-1.7-0.2-2.5-2.3-2.5h-1v-0.6c0.8,0,2.9-0.1,3.7-0.2c1.6-0.1,3.8-0.1,4.4-0.1
				c2.5,0,4.8,0.3,5.9,1.2c1.2,0.8,1.7,1.8,1.7,3.2c0,1.7-1.4,3.2-3.3,3.6v0.1c2.8,0.8,4.4,2.7,4.4,5s-1.6,5.5-6.3,5.5H1.2v-0.6h0.7
				c2.4,0,2.9-0.6,2.9-2.4L4.9,120.3L4.9,120.3z M7.3,124.8h3.2c2.8,0,4.3-1.2,4.3-3.5c0-2.1-1.3-3.9-4.8-3.9
				c-0.7,0-1.8,0.1-2.5,0.1v7.3H7.3z M7.3,131.6c0,2.2,0.9,3,3.3,3c3.8,0,5-2.4,5-4.7s-1.7-4.6-5.2-4.6H7.3V131.6z"/>
		</g>
	</g>
	<g>
		<g>
			<defs>
				<rect id="SVGID_119_" x="-14.3" y="-20.2" width="235.1" height="222.6"/>
			</defs>
			<clipPath id="SVGID_120_">
				<use xlink:href="#SVGID_119_"  style="overflow:visible;"/>
			</clipPath>
			<path class="st60" d="M24.5,132.6c0,1.7,0.7,2.2,2.3,2.2h0.7v0.6h-8.3v-0.6h0.5c1.7,0,2.3-0.5,2.3-2.4v-12.3
				c0-1.8-0.5-2.3-2.2-2.3h-0.7v-0.6c0.7,0,2.5-0.1,3.7-0.2c1.2-0.1,1.7-0.1,3.7-0.1c5.4,0,7.8,2.2,7.8,5.2c0,2.2-1.5,4-3.9,4.7
				c1,0.8,2,1.7,3.3,3L36,132c1.7,1.7,3.5,2.5,5.8,2.7v0.6c-5.1,0.2-6.3-0.6-9-3.1l-2-2c-1.3-1.3-2.3-2.2-3-2.7
				c-0.7,0-1.2,0.1-2,0.1c-0.7,0-1,0-1.5-0.1v5.1H24.5z M24.5,127.1c0.7,0.1,1.2,0.1,1.8,0.1c3.2,0,5.4-1.4,5.4-5
				c0-2.8-1.3-4.8-5.8-4.8c-0.6,0-0.9,0-1.5,0.1V127.1z"/>
		</g>
	</g>
	<g>
		<g>
			<defs>
				<rect id="SVGID_121_" x="-14.3" y="-20.2" width="235.1" height="222.6"/>
			</defs>
			<clipPath id="SVGID_122_">
				<use xlink:href="#SVGID_121_"  style="overflow:visible;"/>
			</clipPath>
			<path class="st61" d="M47.1,135.4H40v-0.6c1.8-0.1,2.2-0.6,2.2-2.5v-12.4c0-1.6-0.6-2.1-2.2-2.1v-0.6h7.1v0.6
				c-1.8,0-2.5,0.5-2.5,2.4v12.4c0,1.7,0.5,2.3,2.5,2.3V135.4z"/>
		</g>
	</g>
	<g>
		<g>
			<defs>
				<rect id="SVGID_123_" x="-14.3" y="-20.2" width="235.1" height="222.6"/>
			</defs>
			<clipPath id="SVGID_124_">
				<use xlink:href="#SVGID_123_"  style="overflow:visible;"/>
			</clipPath>
			<path class="st62" d="M51.5,120.1c0-2-0.5-2.4-2.2-2.4h-0.6v-0.6c1-0.1,2.5-0.1,4.1-0.2c1.6-0.1,3.3-0.1,5-0.1
				c7.7,0,11.2,3.9,11.2,8.8c0,4.4-3.5,9.7-10.8,9.7h-9.3v-0.6h0.5c1.6,0,2.3-0.5,2.3-2.2v-12.3L51.5,120.1L51.5,120.1z M53.9,133.2
				c0,1.2,0.1,1.6,2.4,1.6c3.9,0,5.5-0.6,7.4-2.4c1-1,2.4-3.3,2.4-6.3c0-2.2-0.6-4.6-2.3-6.3c-1.4-1.4-3.5-2.4-7.5-2.4
				c-1.2,0-2,0.1-2.3,0.1L53.9,133.2L53.9,133.2z"/>
		</g>
	</g>
	<g>
		<g>
			<defs>
				<rect id="SVGID_125_" x="-14.3" y="-20.2" width="235.1" height="222.6"/>
			</defs>
			<clipPath id="SVGID_126_">
				<use xlink:href="#SVGID_125_"  style="overflow:visible;"/>
			</clipPath>
			<path class="st63" d="M88.4,134c-2.9,1.5-6.6,1.8-7.8,1.8c-6.5,0-9.3-5-9.3-9.2c0-4.4,3.1-9.9,10.1-9.9c3.1,0,5.2,1,5.8,1
				c0.2,0,0.5-0.1,0.7-0.2h0.5v4.7h-0.6c-0.8-3.7-3.2-4.8-6-4.8c-5.2,0-7.7,4.3-7.7,9c0,6,4.3,8.6,7.6,8.6c1.4,0,2.9-0.3,4.5-1.2
				v-3.7c0-1.7-0.6-2.2-2.3-2.2h-1v-0.6h7.8v0.6c-1.5,0.1-2.1,0.6-2.1,1.8L88.4,134L88.4,134z"/>
		</g>
	</g>
	<g>
		<g>
			<defs>
				<rect id="SVGID_127_" x="-14.3" y="-20.2" width="235.1" height="222.6"/>
			</defs>
			<clipPath id="SVGID_128_">
				<use xlink:href="#SVGID_127_"  style="overflow:visible;"/>
			</clipPath>
			<path class="st64" d="M104,128.8h-0.6c-0.2-2.1-0.8-2.3-2-2.3h-5v6.2c0,1.4,0.5,1.6,1.6,1.6h4.5c2.1,0,2.7-0.8,3.3-3.3h0.6
				l-0.5,4.4H90.5v-0.6h0.8c2.3,0,2.8-0.7,2.8-2.4v-12.3c0-1.6-0.3-2.3-2.3-2.3h-0.7v-0.6h14.1l0.2,4h-0.5c-0.3-2.5-1.2-3-2.2-3
				h-6.1v7.3h5.2c1,0,1.5-0.5,1.7-2.2h0.6v5.5H104z"/>
		</g>
	</g>
	<g>
		<g>
			<defs>
				<rect id="SVGID_129_" x="-14.3" y="-20.2" width="235.1" height="222.6"/>
			</defs>
			<clipPath id="SVGID_130_">
				<use xlink:href="#SVGID_129_"  style="overflow:visible;"/>
			</clipPath>
			<path class="st65" d="M125.3,135.8l-3.8-9.1l-3.7,9.1h-1.4l-6.1-15.6c-0.9-2.2-1.6-2.5-3.5-2.5h-0.2v-0.6h7.6v0.6h-0.5
				c-1.4,0-1.8,0.6-1.4,1.8l5.3,13.5l3.1-7.8l-2.4-5.8c-0.6-1.4-1.5-1.7-3-1.7v-0.6h12v0.6c-1.8,0-2.4,0.5-2.9,1.5l-1.8,4.6l3.8,9.1
				l5.2-13.6c0.5-1.2,0.1-1.6-2.1-1.7v-0.6h6v0.6c-1.7,0-2.2,0.3-3.1,2.7l-5.9,15.4h-1.3L125.3,135.8L125.3,135.8z M123.4,118.9
				c0.3-0.8,0.1-1.3-0.7-1.3h-1.3c-0.8,0-1.2,0.3-0.8,1l1.5,3.5L123.4,118.9z"/>
		</g>
	</g>
	<g>
		<g>
			<defs>
				<rect id="SVGID_131_" x="-14.3" y="-20.2" width="235.1" height="222.6"/>
			</defs>
			<clipPath id="SVGID_132_">
				<use xlink:href="#SVGID_131_"  style="overflow:visible;"/>
			</clipPath>
			<path class="st66" d="M137,127.3l-1.7,4.6c-0.2,0.6-0.6,1.4-0.6,1.8c0,0.8,0.8,1,2.4,1h0.5v0.6h-6.8v-0.6c1.8,0,2.2-0.3,3.1-2.9
				l5.3-14.5l-0.2-0.7h2.5l6.1,16.2c0.6,1.5,1.2,1.8,2.7,1.8v0.6h-8.1v-0.6h0.8c1.6,0,2.3-0.2,2.3-1c0-0.5-0.2-0.9-0.3-1.2l-2-5.3
				L137,127.3L137,127.3z M140,119.1l-2.5,6.8h5.1L140,119.1z"/>
		</g>
	</g>
	<g>
		<g>
			<defs>
				<rect id="SVGID_133_" x="-14.3" y="-20.2" width="235.1" height="222.6"/>
			</defs>
			<clipPath id="SVGID_134_">
				<use xlink:href="#SVGID_133_"  style="overflow:visible;"/>
			</clipPath>
			<path class="st67" d="M157.4,132.6c0,1.6,0.6,2.2,2.3,2.2h1v0.6h-9.2v-0.6h1c1.7,0,2.3-0.6,2.3-2.2v-14.4h-5
				c-1.2,0-1.7,0.7-2.2,3.2h-0.6l0.5-4.7h0.6c0,0.2,0.1,0.3,0.3,0.3c0.2,0.1,0.3,0.1,0.6,0.1h14.1c0.5,0,0.8-0.1,0.9-0.5h0.6
				l0.5,4.7h-0.6c-0.5-2.5-0.9-3.2-2.2-3.2h-5.1v14.4H157.4z"/>
		</g>
	</g>
	<g>
		<g>
			<defs>
				<rect id="SVGID_135_" x="-14.3" y="-20.2" width="235.1" height="222.6"/>
			</defs>
			<clipPath id="SVGID_136_">
				<use xlink:href="#SVGID_135_"  style="overflow:visible;"/>
			</clipPath>
			<path class="st68" d="M178.7,128.8h-0.6c-0.2-2.1-0.8-2.3-2-2.3h-5v6.2c0,1.4,0.5,1.6,1.6,1.6h4.5c2.1,0,2.7-0.8,3.3-3.3h0.6
				l-0.5,4.4h-15.6v-0.6h0.8c2.3,0,2.8-0.7,2.8-2.4v-12.3c0-1.6-0.3-2.3-2.3-2.3h-0.7v-0.6h14.1l0.2,4h-0.6c-0.3-2.5-1.2-3-2.2-3
				h-6.1v7.3h5.2c1,0,1.5-0.5,1.7-2.2h0.6V128.8L178.7,128.8z"/>
		</g>
	</g>
	<g>
		<g>
			<defs>
				<rect id="SVGID_137_" x="-14.3" y="-20.2" width="235.1" height="222.6"/>
			</defs>
			<clipPath id="SVGID_138_">
				<use xlink:href="#SVGID_137_"  style="overflow:visible;"/>
			</clipPath>
			<path class="st69" d="M187.7,132.6c0,1.7,0.7,2.2,2.3,2.2h0.7v0.6h-8.3v-0.6h0.5c1.7,0,2.3-0.5,2.3-2.4v-12.3
				c0-1.8-0.5-2.3-2.2-2.3h-0.7v-0.6c0.7,0,2.5-0.1,3.7-0.2c1.2-0.1,1.7-0.1,3.7-0.1c5.4,0,7.8,2.2,7.8,5.2c0,2.2-1.5,4-3.9,4.7
				c1,0.8,2,1.7,3.3,3l2.3,2.3c1.7,1.7,3.5,2.8,5.8,3v0.6c-5.1,0.2-6.5-0.9-9-3.5l-2-2c-1.3-1.3-2.3-2.2-3-2.7c-0.7,0-1.2,0.1-2,0.1
				c-0.7,0-1,0-1.5-0.1v5.1H187.7z M187.7,127.1c0.7,0.1,1.2,0.1,1.8,0.1c3.2,0,5.4-1.4,5.4-5c0-2.8-1.3-4.8-5.8-4.8
				c-0.6,0-0.9,0-1.5,0.1V127.1L187.7,127.1z"/>
		</g>
	</g>
</g>
<g>
	<g>
		<g>
			<defs>
				<rect id="SVGID_139_" x="1.3" y="2" width="203.7" height="169.1"/>
			</defs>
			<clipPath id="SVGID_140_">
				<use xlink:href="#SVGID_139_"  style="overflow:visible;"/>
			</clipPath>
			<line class="st70" x1="1.3" y1="144.4" x2="205.1" y2="144.4"/>
		</g>
	</g>
</g>
<g>
	<g>
		<g>
			<defs>
				<rect id="SVGID_141_" x="-14.3" y="-20.2" width="235.1" height="222.6"/>
			</defs>
			<clipPath id="SVGID_142_">
				<use xlink:href="#SVGID_141_"  style="overflow:visible;"/>
			</clipPath>
			<path class="st71" d="M107.7,24.4c0.5-0.7,0.1-1.5,0.7-2.1c-0.1-0.8-1.3-1-2-1.8c-0.3-0.3-0.9-0.9-1.3-1.3"/>
		</g>
	</g>
	<g>
		<g>
			<defs>
				<rect id="SVGID_143_" x="-14.3" y="-20.2" width="235.1" height="222.6"/>
			</defs>
			<clipPath id="SVGID_144_">
				<use xlink:href="#SVGID_143_"  style="overflow:visible;"/>
			</clipPath>
			<path class="st72" d="M119.7,51.4c-0.1,0-0.2-1-0.2-1.3c0,0-0.3-3.2,0.2-5.9l0.1-0.2c0,0,1.6-1.2,2-1.7c-0.1-0.3-0.1-0.7-0.2-1
				c-0.2-0.8-0.5-1.7-0.7-2.4c-0.5,0-0.9,0.1-1.3,0.2l-0.3,0.1c0,0-0.8-1.8-1-2.8c-0.1-0.6-0.6-1.8-0.7-2.3c-1-2.7-3.3-4.7-5.3-6
				c-0.1-0.1-0.2-0.2-0.2-0.2c0.1,0,1,0.5,1.3,0.6c1.5,1.2,3.5,3,4.5,4.8c0.3,0.6,0.8,1.8,0.9,2.5c0.2,0.8,0.7,2.3,0.8,2.7
				c0.5-0.1,1-0.3,1.7-0.3h0.2l0.1,0.2c0.3,0.7,0.6,1.8,0.9,2.8c0.1,0.5,0.3,1.3,0.3,1.3s-1.6,1.3-2.5,1.8
				C119.4,47.1,119.8,51.3,119.7,51.4L119.7,51.4z"/>
		</g>
	</g>
	<g>
		<g>
			<defs>
				<rect id="SVGID_145_" x="-14.3" y="-20.2" width="235.1" height="222.6"/>
			</defs>
			<clipPath id="SVGID_146_">
				<use xlink:href="#SVGID_145_"  style="overflow:visible;"/>
			</clipPath>
			<path class="st73" d="M131.9,109.3c-0.5-8.2-0.9-17.9-1-28.5v-0.3l0.3-0.1c0.9-0.2,1.6-0.8,1.7-1.6c0.1-0.7-0.2-1.4-0.9-1.7
				l-0.1-0.1l-0.3-1.8l0.3-0.1c0.1,0,1-0.1,2-0.2l0.9-1.7c0-0.6,0.2-3.9,0.2-5.8c-0.5,0-4,0.1-4.7,0.1c-0.2,0-0.3-0.2-0.3-0.3
				c0-0.2,5.9-0.5,5.9-0.5v0.3c-0.1,2.1-0.3,6.3-0.3,6.3l-1.4,2H132l0.5,1.3c0.8,0.5,1.5,1.4,1.4,2.3c-0.1,1-1.2,1.6-2.3,2
				c0.1,10.5,0.7,20.3,1.2,28.3C132.4,109.6,131.9,109.6,131.9,109.3"/>
		</g>
	</g>
	<g>
		<g>
			<defs>
				<rect id="SVGID_147_" x="-14.3" y="-20.2" width="235.1" height="222.6"/>
			</defs>
			<clipPath id="SVGID_148_">
				<use xlink:href="#SVGID_147_"  style="overflow:visible;"/>
			</clipPath>
			<path class="st74" d="M122.6,59.2c-0.3,0-0.6,0-0.9-0.1c-0.8-0.3-1.4-1-1.6-1.7v-0.1l0.1-0.1c0.3-0.7,1.4-3.1,0.5-4.7
				c-0.2-0.2-0.5-0.3-0.7-0.5c-0.2-0.1,0.3-0.3,1,0.2c1.8,1.8,0.3,3.9-0.6,5.1c0.2,0.5,1.2,1,1.7,1.3c0.3,0.1,0.7,0.2,1.3,0
				c0-0.1-0.2-2-0.2-2s1.5,0,2.2,0.1c0.8,0.1,1.7,0.2,1.7,0.2c-0.7-0.1-2.8,0.1-3.5,0.1c0,0.1,0.2,1.4,0.2,1.6v0.2l-0.2,0.1
				C123.2,59,123,59.2,122.6,59.2"/>
		</g>
	</g>
</g>
<g>
	<g>
		<g>
			<defs>
				<rect id="SVGID_149_" x="1.3" y="2" width="203.7" height="169.1"/>
			</defs>
			<clipPath id="SVGID_150_">
				<use xlink:href="#SVGID_149_"  style="overflow:visible;"/>
			</clipPath>
			<line class="st75" x1="45.3" y1="170.6" x2="161.3" y2="170.6"/>
		</g>
	</g>
</g>
</svg>
