<?xml version="1.0" encoding="UTF-8"?>
<svg width="248px" height="56px" viewBox="0 0 248 56" version="1.1" xmlns="http://www.w3.org/2000/svg" xmlns:xlink="http://www.w3.org/1999/xlink">
    <!-- Generator: Sketch 61 (89581) - https://sketch.com -->
    <title>Group</title>
    <desc>Created with Sketch.</desc>
    <g id="Symbols" stroke="none" stroke-width="1" fill="none" fill-rule="evenodd">
        <g id="Header---Desktop" transform="translate(-120.000000, -22.000000)">
            <g id="Group" transform="translate(120.000000, 22.000000)">
                <path d="M7.24661562,18.5947658 C7.24661562,21.2904204 8.30969069,22.2476727 11.2888859,22.2476727 C15.9685165,22.2476727 17.3159399,19.3395646 17.3159399,16.5752462 C17.3159399,13.8448559 15.2237177,11.0433784 11.0756246,11.0433784 L7.24661562,11.0433784 L7.24661562,18.5947658 Z M7.24661562,10.3696667 L11.1111682,10.3696667 C14.5152703,10.3696667 16.2165135,9.02224324 16.2165135,6.25630931 C16.2165135,3.77472372 14.7277237,1.50559159 10.3663694,1.50559159 C9.58602703,1.50559159 8.13278078,1.57667868 7.24661562,1.61141441 L7.24661562,10.3696667 Z M4.30296396,4.90888589 C4.30296396,2.88855856 4.05577477,1.82467568 1.57338138,1.82467568 L0.331780781,1.82467568 L0.331780781,1.15177177 C1.32538438,1.11542042 3.77142643,0.973246246 4.79895796,0.937702703 C6.75062162,0.866615616 9.44466066,0.83187988 10.1175646,0.83187988 C13.2381261,0.83187988 15.9685165,1.29233033 17.2448529,2.21403904 C18.6989069,3.24318619 19.4081622,4.44924324 19.4081622,6.14967868 C19.4081622,8.17162162 17.7408468,10.0497748 15.3658919,10.4762973 L15.3658919,10.5473844 C18.6989069,11.5401802 20.648955,13.7026817 20.648955,16.4678078 C20.648955,19.2692853 18.6989069,23.2049249 12.9901291,23.2049249 L0.0135045045,23.2049249 L0.0135045045,22.532021 L0.828582583,22.532021 C3.73588288,22.532021 4.30296396,21.8575015 4.30296396,19.6239129 L4.30296396,4.90888589 L4.30296396,4.90888589 Z" id="Fill-1" fill="#1A1919"></path>
                <path d="M28.163991,13.2066877 C29.0154204,13.3117027 29.546958,13.276967 30.3628438,13.276967 C34.2976757,13.276967 36.8866997,11.6104595 36.8866997,7.35573574 C36.8866997,4.05826426 35.3971021,1.50559159 29.9371291,1.50559159 C29.2634174,1.50559159 28.8021592,1.50559159 28.163991,1.57667868 L28.163991,13.2066877 Z M28.163991,19.8711021 C28.163991,21.9988679 29.0154204,22.532021 31.001012,22.532021 L31.8160901,22.532021 L31.8160901,23.2049249 L21.7823093,23.2049249 L21.7823093,22.532021 L22.3849339,22.532021 C24.4771562,22.532021 25.2211471,21.9633243 25.2211471,19.5875616 L25.2211471,4.66008108 C25.2211471,2.46365165 24.6185225,1.82467568 22.5618438,1.82467568 L21.7823093,1.82467568 L21.7823093,1.15177177 C22.6337387,1.15177177 24.7954324,1.00878979 26.2494865,0.937702703 C27.7035405,0.866615616 28.4127958,0.83187988 30.7174715,0.83187988 C37.2768709,0.83187988 40.2189069,3.52672673 40.2189069,7.14247447 C40.2189069,9.80258559 38.411033,12.0361742 35.5037327,12.8867958 C36.8148048,13.9159429 37.8794955,14.9079309 39.546003,16.5752462 L42.3466727,19.3751081 C44.4388949,21.4673303 46.5618138,22.3833844 49.2922042,22.5602943 L49.2922042,23.1976547 C43.0866246,23.4811952 41.5307868,22.532021 38.3754895,19.3751081 L36.0352703,17.0348889 C34.4753934,15.4742042 33.2346006,14.4474805 32.383979,13.8803994 C31.497006,13.9159429 30.9299249,13.9506787 29.9726727,13.9506787 C29.1923303,13.9506787 28.7310721,13.9159429 28.163991,13.8803994 L28.163991,19.8711021 L28.163991,19.8711021 Z" id="Fill-2" fill="#1A1919"></path>
                <path d="M55.4993994,23.2049249 L46.8833213,23.2049249 L46.8833213,22.532021 C49.0821742,22.4245826 49.5426246,21.8575015 49.5426246,19.4817387 L49.5426246,4.37815616 C49.5426246,2.46365165 48.8697207,1.93130631 46.8833213,1.82467568 L46.8833213,1.15177177 L55.4993994,1.15177177 L55.4993994,1.82467568 C53.2666186,1.82467568 52.4862763,2.32147748 52.4862763,4.69643243 L52.4862763,19.7305435 C52.4862763,21.821958 53.0533574,22.532021 55.4993994,22.532021 L55.4993994,23.2049249" id="Fill-3" fill="#1A1919"></path>
                <path d="M63.9716877,20.5811652 C63.9716877,22.0344114 64.0791261,22.532021 66.8797958,22.532021 C71.6313213,22.532021 73.6169129,21.8575015 75.814958,19.6594565 C77.1268378,18.3831201 78.7578018,15.6527297 78.7578018,11.9998228 C78.7578018,9.37687087 78.013003,6.46957057 75.9207808,4.37815616 C74.2906246,2.74638438 71.7734955,1.50559159 66.8087087,1.50559159 C65.3546547,1.50559159 64.3982102,1.61141441 63.9716877,1.64776577 L63.9716877,20.5811652 Z M61.0296517,4.69643243 C61.0296517,2.39256456 60.427027,1.82467568 58.3348048,1.82467568 L57.6263574,1.82467568 L57.6263574,1.15177177 C58.9374294,1.08068468 60.675024,1.00878979 62.6250721,0.937702703 C64.5759279,0.866615616 66.7376216,0.83187988 68.5826547,0.83187988 C77.9419159,0.83187988 82.0908168,5.58340541 82.0908168,11.4327417 C82.0908168,16.7868919 77.9419159,23.2049249 68.972018,23.2049249 L57.6263574,23.2049249 L57.6263574,22.532021 L58.228982,22.532021 C60.1434865,22.532021 61.0296517,21.9988679 61.0296517,19.9421892 L61.0296517,4.69643243 L61.0296517,4.69643243 Z" id="Fill-4" fill="#1A1919"></path>
                <path d="M105.597216,21.5384174 C102.086483,23.3462913 97.5837628,23.7728138 96.094973,23.7728138 C88.3295165,23.7728138 84.712961,17.7804955 84.712961,12.6040631 C84.712961,7.28464865 88.4361471,0.618618619 97.0877688,0.618618619 C100.881234,0.618618619 103.398363,1.82467568 104.143162,1.82467568 C104.461438,1.82467568 104.745787,1.75358859 104.959048,1.57667868 L105.455042,1.57667868 L105.455042,7.32019219 L104.745787,7.32019219 C103.788535,2.88855856 100.775411,1.50559159 97.4779399,1.50559159 C91.2368168,1.50559159 88.045976,6.68202402 88.045976,12.3908018 C88.045976,19.6594565 93.1521291,22.885033 97.2291351,22.885033 C98.8600991,22.885033 100.667973,22.532021 102.654372,21.5384174 L102.654372,17.0712402 C102.654372,15.0492973 101.944309,14.3763934 99.8173514,14.3763934 L98.5054715,14.3763934 L98.5054715,13.7374174 L108.078802,13.7374174 L108.078802,14.3763934 C106.306471,14.4822162 105.597216,15.0856486 105.597216,16.6091742 L105.597216,21.5384174" id="Fill-5" fill="#1A1919"></path>
                <path d="M124.670366,15.2262072 L123.997462,15.2262072 C123.713922,12.7098859 123.039402,12.4263453 121.586964,12.4263453 L115.593838,12.4263453 L115.593838,19.9777327 C115.593838,21.6086967 116.19727,21.9277808 117.50915,21.9277808 L122.969123,21.9277808 C125.450709,21.9277808 126.195508,20.9713363 127.081673,17.9218619 L127.719841,17.9218619 L127.151952,23.2049249 L108.325991,23.2049249 L108.325991,22.532021 L109.317979,22.532021 C112.155,22.532021 112.650994,21.7516787 112.650994,19.6239129 L112.650994,4.66008108 C112.650994,2.67448949 112.190544,1.82467568 109.813973,1.82467568 L109.035246,1.82467568 L109.035246,1.15177177 L126.054141,1.15177177 L126.337682,6.0793994 L125.699514,6.0793994 C125.238255,3.06546847 124.35209,2.4273003 123.075754,2.4273003 L115.593838,2.4273003 L115.593838,11.150009 L121.940784,11.150009 C123.21712,11.150009 123.819745,10.5473844 123.997462,8.49151351 L124.670366,8.49151351 L124.670366,15.2262072" id="Fill-6" fill="#1A1919"></path>
                <path d="M148.071751,3.34900901 C148.461114,2.39256456 148.213117,1.82467568 147.184778,1.82467568 L145.69518,1.82467568 C144.774279,1.82467568 144.278285,2.1784955 144.703192,3.13736336 L146.475523,7.24991291 L148.071751,3.34900901 Z M150.517793,23.7728138 L145.873706,12.8157087 L141.405721,23.7728138 L139.668934,23.7728138 L132.293649,4.90888589 C131.229766,2.21403904 130.379144,1.82467568 128.110012,1.82467568 L127.896751,1.82467568 L127.896751,1.15177177 L137.079102,1.15177177 L137.079102,1.82467568 L136.477285,1.82467568 C134.810778,1.82467568 134.17261,2.56947447 134.776042,4.05826426 L141.228003,20.2976246 L145.05782,10.8301171 L142.186063,3.84581081 C141.476808,2.10740841 140.412117,1.82467568 138.533964,1.82467568 L138.533964,1.15177177 L153.070465,1.15177177 L153.070465,1.82467568 C150.873228,1.82467568 150.128429,2.35621321 149.561348,3.70444444 L147.291408,9.2355045 L151.936303,20.2976246 L158.21297,3.84581081 C158.779243,2.39256456 158.317985,1.89657057 155.729769,1.82467568 L155.729769,1.15177177 L163.068703,1.15177177 L163.068703,1.82467568 C160.907009,1.82467568 160.410207,2.24958258 159.346324,5.05106006 L152.219844,23.7728138 L150.517793,23.7728138 L150.517793,23.7728138 Z" id="Fill-7" fill="#1A1919"></path>
                <path d="M168.209592,3.59781381 L165.194853,11.8592643 L171.329345,11.8592643 L168.209592,3.59781381 Z M164.593036,13.4191411 L162.536357,18.9857447 C162.287553,19.6594565 161.827102,20.7225315 161.827102,21.2193333 C161.827102,22.1765856 162.748811,22.532021 164.698859,22.532021 L165.266748,22.532021 L165.266748,23.2049249 L157.075577,23.2049249 L157.075577,22.532021 C159.380252,22.4964775 159.770423,22.1054985 160.905393,19.0212883 L167.35897,1.39896096 L167.039078,0.618618619 L170.124096,0.618618619 L177.534117,20.2976246 C178.242565,22.1765856 178.988171,22.532021 180.761309,22.532021 L180.761309,23.2049249 L171.009453,23.2049249 L171.009453,22.532021 L171.932778,22.532021 C173.953105,22.532021 174.697904,22.3187598 174.697904,21.3251562 C174.697904,20.7580751 174.449907,20.2265375 174.306925,19.8711021 L171.932778,13.4191411 L164.593036,13.4191411 L164.593036,13.4191411 Z" id="Fill-8" fill="#1A1919"></path>
                <path d="M189.446859,19.9421892 C189.446859,21.8575015 190.085027,22.532021 192.246721,22.532021 L193.558601,22.532021 L193.558601,23.2049249 L182.390658,23.2049249 L182.390658,22.532021 L183.70173,22.532021 C185.865039,22.532021 186.503207,21.8575015 186.503207,19.9421892 L186.503207,2.4273003 L180.333979,2.4273003 C178.914661,2.4273003 178.2773,3.24318619 177.745763,6.36293994 L177.107595,6.36293994 L177.673868,0.618618619 L178.348387,0.618618619 C178.383123,0.83187988 178.526105,0.973246246 178.738559,1.04514114 C178.951012,1.11542042 179.199009,1.15177177 179.447814,1.15177177 L196.502252,1.15177177 C196.998246,1.15177177 197.529784,1.04514114 197.600871,0.618618619 L198.274583,0.618618619 L198.841664,6.36293994 L198.203495,6.36293994 C197.671958,3.24318619 197.032982,2.4273003 195.615279,2.4273003 L189.446859,2.4273003 L189.446859,19.9421892" id="Fill-9" fill="#1A1919"></path>
                <path d="M215.186039,15.2262072 L214.512327,15.2262072 C214.228787,12.7098859 213.554267,12.4263453 212.101829,12.4263453 L206.109511,12.4263453 L206.109511,19.9777327 C206.109511,21.6086967 206.712135,21.9277808 208.024015,21.9277808 L213.483988,21.9277808 C215.966381,21.9277808 216.71118,20.9713363 217.596538,17.9218619 L218.235514,17.9218619 L217.667625,23.2049249 L198.840856,23.2049249 L198.840856,22.532021 L199.833652,22.532021 C202.669865,22.532021 203.165859,21.7516787 203.165859,19.6239129 L203.165859,4.66008108 C203.165859,2.67448949 202.705408,1.82467568 200.329646,1.82467568 L199.549303,1.82467568 L199.549303,1.15177177 L216.569006,1.15177177 L216.851739,6.0793994 L216.214378,6.0793994 C215.75312,3.06546847 214.866147,2.4273003 213.589811,2.4273003 L206.109511,2.4273003 L206.109511,11.150009 L212.456456,11.150009 C213.732793,11.150009 214.33461,10.5473844 214.512327,8.49151351 L215.186039,8.49151351 L215.186039,15.2262072" id="Fill-10" fill="#1A1919"></path>
                <path d="M226.140721,13.2066877 C226.99215,13.3117027 227.523688,13.276967 228.338766,13.276967 C232.275213,13.276967 234.862622,11.6104595 234.862622,7.35573574 C234.862622,4.05826426 233.373832,1.50559159 227.913859,1.50559159 C227.240147,1.50559159 226.778081,1.50559159 226.140721,1.57667868 L226.140721,13.2066877 Z M226.140721,19.8711021 C226.140721,21.9988679 226.99215,22.532021 228.977742,22.532021 L229.793628,22.532021 L229.793628,23.2049249 L219.758231,23.2049249 L219.758231,22.532021 L220.361664,22.532021 C222.453886,22.532021 223.198685,21.9633243 223.198685,19.5875616 L223.198685,4.66008108 C223.198685,2.46365165 222.595252,1.82467568 220.538574,1.82467568 L219.758231,1.82467568 L219.758231,1.15177177 C220.609661,1.15177177 222.772162,1.00878979 224.226216,0.937702703 C225.68027,0.866615616 226.388718,0.83187988 228.694201,0.83187988 C235.253601,0.83187988 238.195637,3.52672673 238.195637,7.14247447 C238.195637,9.80258559 236.386955,12.0361742 233.479655,12.8867958 C234.792342,13.9159429 235.855417,14.9079309 237.521925,16.5752462 L240.323402,19.3751081 C242.414817,21.4673303 244.578126,22.7792102 247.308517,22.9569279 L247.308517,23.5942883 C241.103745,23.8786366 239.507517,22.532021 236.352219,19.3751081 L234.012808,17.0348889 C232.452123,15.4742042 231.21133,14.4474805 230.359901,13.8803994 C229.473736,13.9159429 228.905847,13.9506787 227.949402,13.9506787 C227.16906,13.9506787 226.70861,13.9159429 226.140721,13.8803994 L226.140721,19.8711021 L226.140721,19.8711021 Z" id="Fill-12" fill="#1A1919"></path>
                <line x1="0.003003003" y1="34.1103303" x2="247.210772" y2="34.1103303" id="Stroke-13" stroke="#1A1919" stroke-width="1.1"></line>
                <path d="M53.3635556,53.387048 C53.786039,53.6576637 54.7142102,54.1124595 55.8612973,54.1124595 C56.8072402,54.1124595 57.6513994,53.5898078 57.6513994,52.4087928 C57.6513994,51.5638258 57.1618679,51.193042 56.1157568,50.6186907 L55.0187538,50.0104114 C53.8530871,49.369012 53.0937477,48.4408408 53.0937477,46.9213544 C53.0937477,44.8121682 54.8321502,43.7143574 56.8072402,43.7143574 C58.0561111,43.7143574 58.9341982,44.0358649 59.2718619,44.1368408 L59.1708859,45.9430991 C58.6474264,45.7403393 57.9551351,45.4357958 56.9591081,45.4357958 C55.8790691,45.4357958 55.3216817,46.0101471 55.3216817,46.8211862 C55.3216817,47.6984655 55.912997,48.0361291 56.5705526,48.4077207 L57.8371952,49.1161682 C59.22097,49.8932793 59.8793333,50.6356547 59.8793333,52.2892372 C59.8793333,54.6868108 58.1748589,55.8355135 55.9291532,55.8355135 C54.7481381,55.8355135 53.8361231,55.6658739 53.2456156,55.3112462 L53.3635556,53.387048" id="Fill-15" fill="#741E23"></path>
                <polyline id="Fill-16" fill="#741E23" points="63.7802372 45.6054354 61.1467838 45.6054354 61.1467838 43.8831892 68.5576126 43.8831892 68.5576126 45.6054354 65.9411231 45.6054354 65.9411231 55.6658739 63.7802372 55.6658739 63.7802372 45.6054354"></polyline>
                <path d="M75.6154294,51.1760781 L74.1290631,45.6724835 L74.0959429,45.6724835 L72.4746727,51.1760781 L75.6154294,51.1760781 Z M76.0702252,52.8296607 L72.0190691,52.8296607 L71.1749099,55.6658739 L69.014024,55.6658739 L72.9642042,43.8831892 L75.3278498,43.8831892 L79.1253544,55.6658739 L76.8974204,55.6658739 L76.0702252,52.8296607 L76.0702252,52.8296607 Z" id="Fill-17" fill="#741E23"></path>
                <polyline id="Fill-18" fill="#741E23" points="81.8775556 45.6054354 79.2449099 45.6054354 79.2449099 43.8831892 86.6557387 43.8831892 86.6557387 45.6054354 84.0384414 45.6054354 84.0384414 55.6658739 81.8775556 55.6658739 81.8775556 45.6054354"></polyline>
                <polyline id="Fill-19" fill="#741E23" points="88.6825285 43.8831892 94.8776066 43.8831892 94.8776066 45.6054354 90.8434144 45.6054354 90.8434144 48.7445766 94.6586907 48.7445766 94.6586907 50.4668228 90.8434144 50.4668228 90.8434144 53.9444354 95.0464384 53.9444354 95.0464384 55.6658739 88.6825285 55.6658739 88.6825285 43.8831892"></polyline>
                <path d="M107.45679,43.8831892 L107.45679,51.5137417 C107.45679,53.4710601 108.047297,54.1124595 109.312324,54.1124595 C110.545039,54.1124595 111.153318,53.4710601 111.153318,51.5137417 L111.153318,43.8831892 L113.314204,43.8831892 L113.314204,51.5137417 C113.314204,54.618955 111.52491,55.8355135 109.312324,55.8355135 C107.085198,55.8355135 105.295904,54.618955 105.295904,51.5137417 L105.295904,43.8831892 L107.45679,43.8831892" id="Fill-20" fill="#741E23"></path>
                <polyline id="Fill-21" fill="#741E23" points="116.286129 43.8831892 118.852535 43.8831892 122.768787 53.1333964 122.802715 53.1333964 122.802715 43.8831892 124.760841 43.8831892 124.760841 55.6658739 122.177471 55.6658739 118.278183 46.4835225 118.245063 46.4835225 118.245063 55.6658739 116.286129 55.6658739 116.286129 43.8831892"></polyline>
                <polygon id="Fill-22" fill="#741E23" points="127.851514 55.6658739 130.011592 55.6658739 130.011592 43.8831892 127.851514 43.8831892"></polygon>
                <polyline id="Fill-23" fill="#741E23" points="132.342117 43.8831892 134.671835 43.8831892 137.051637 52.9653724 137.085565 52.9653724 139.53403 43.8831892 141.761156 43.8831892 138.166411 55.6658739 135.887586 55.6658739 132.342117 43.8831892"></polyline>
                <polyline id="Fill-24" fill="#741E23" points="143.739477 43.8831892 149.934556 43.8831892 149.934556 45.6054354 145.899556 45.6054354 145.899556 48.7445766 149.714024 48.7445766 149.714024 50.4668228 145.899556 50.4668228 145.899556 53.9444354 150.10258 53.9444354 150.10258 55.6658739 143.739477 55.6658739 143.739477 43.8831892"></polyline>
                <path d="M156.045622,49.0151922 C157.193517,49.0151922 157.970628,48.4246847 157.970628,47.2250901 C157.970628,45.8752432 157.261372,45.5375796 156.045622,45.5375796 L155.168342,45.5375796 L155.168342,49.0151922 L156.045622,49.0151922 Z M153.007456,43.8831892 L156.687829,43.8831892 C158.780859,43.8831892 160.199369,44.8283243 160.199369,46.9892102 C160.199369,48.5248529 159.236462,49.5556156 157.919736,49.7575676 L157.919736,49.8084595 C158.357568,49.8763153 158.848715,50.0782673 159.220306,51.1760781 L160.755949,55.6658739 L158.459351,55.6658739 L157.2953,51.8336336 C157.007721,50.9054625 156.451141,50.6017267 155.657066,50.6017267 L155.168342,50.6017267 L155.168342,55.6658739 L153.007456,55.6658739 L153.007456,43.8831892 L153.007456,43.8831892 Z" id="Fill-25" fill="#741E23"></path>
                <path d="M163.271462,53.387048 C163.693946,53.6576637 164.622117,54.1124595 165.77082,54.1124595 C166.715955,54.1124595 167.560114,53.5898078 167.560114,52.4087928 C167.560114,51.5638258 167.068967,51.193042 166.023664,50.6186907 L164.925853,50.0104114 C163.761802,49.369012 163.001655,48.4408408 163.001655,46.9213544 C163.001655,44.8121682 164.740865,43.7143574 166.715955,43.7143574 C167.964018,43.7143574 168.842913,44.0358649 169.180577,44.1368408 L169.078793,45.9430991 C168.555333,45.7403393 167.86385,45.4357958 166.867015,45.4357958 C165.787784,45.4357958 165.229589,46.0101471 165.229589,46.8211862 C165.229589,47.6984655 165.820904,48.0361291 166.479267,48.4077207 L167.745102,49.1161682 C169.129685,49.8932793 169.788048,50.6356547 169.788048,52.2892372 C169.788048,54.6868108 168.082766,55.8355135 165.83706,55.8355135 C164.656045,55.8355135 163.74403,55.6658739 163.153523,55.3112462 L163.271462,53.387048" id="Fill-26" fill="#741E23"></path>
                <polygon id="Fill-27" fill="#741E23" points="172.473201 55.6658739 174.634087 55.6658739 174.634087 43.8831892 172.473201 43.8831892"></polygon>
                <polyline id="Fill-28" fill="#741E23" points="179.816982 45.6054354 177.184336 45.6054354 177.184336 43.8831892 184.594357 43.8831892 184.594357 45.6054354 181.977868 45.6054354 181.977868 55.6658739 179.816982 55.6658739 179.816982 45.6054354"></polyline>
                <polyline id="Fill-29" fill="#741E23" points="189.49048 50.9393904 186.013676 43.8831892 188.342586 43.8831892 190.638375 48.5927087 192.799261 43.8831892 195.128979 43.8831892 191.651366 50.9894745 191.651366 55.6658739 189.49048 55.6658739 189.49048 50.9393904"></polyline>
            </g>
        </g>
    </g>
</svg>